<?xml version="1.0" standalone="no"?><!DOCTYPE svg PUBLIC "-//W3C//DTD SVG 1.1//EN" "http://www.w3.org/Graphics/SVG/1.1/DTD/svg11.dtd"><svg t="1731924160469" class="icon" viewBox="0 0 1024 1024" version="1.1" xmlns="http://www.w3.org/2000/svg" p-id="18723" xmlns:xlink="http://www.w3.org/1999/xlink" width="200" height="200"><path d="M512 512m-448 0a448 448 0 1 0 896 0 448 448 0 1 0-896 0Z" fill="#F4B218" p-id="18724"></path><path d="M723.28 681.15c3.92 2.33 6.97 4.71 9.13 7.15 2.16 2.43 3.34 4.76 3.53 7 0.2 2.24-0.05 4.42-0.74 6.56-0.69 2.14-2.21 4.28-4.56 6.42s-4.66 4.03-6.92 5.69-5.2 3.45-8.83 5.4c-3.63 1.94-6.72 3.55-9.27 4.81-2.55 1.26-5.69 2.77-9.42 4.52-3.73 1.75-6.38 3.01-7.95 3.79-7.46 3.69-15.85 9.14-25.17 16.33-9.32 7.19-16.73 13.42-22.22 18.67-3.34 3.11-10.01 5.01-20.02 5.69-10.01 0.68-18.74-0.73-26.2-4.23-3.53-1.75-6.43-4.03-8.68-6.85-2.26-2.82-3.88-5.3-4.86-7.44-0.98-2.14-3.14-4.03-6.48-5.69s-7.95-2.58-13.84-2.77c-8.63-0.19-21.39-0.29-38.27-0.29-3.73 0-9.32 0.15-16.78 0.44-7.46 0.29-13.15 0.53-17.07 0.73-8.63 0.19-16.44 1.65-23.4 4.37-6.97 2.72-12.22 5.64-15.75 8.75-3.53 3.11-7.8 5.88-12.8 8.31-5 2.43-10.25 3.55-15.75 3.35-5.69-0.19-16.58-3.21-32.67-9.04s-30.42-10.01-42.98-12.54c-3.73-0.78-8.73-1.7-15.01-2.77-6.28-1.07-11.19-1.94-14.72-2.62-3.53-0.68-7.41-1.6-11.63-2.77-4.22-1.17-7.51-2.58-9.86-4.23-2.35-1.65-4.02-3.55-5-5.69-1.96-4.47-1.28-10.94 2.06-19.39 3.34-8.46 5.1-13.76 5.3-15.89 0.2-3.11-0.2-7-1.18-11.67s-1.96-8.8-2.94-12.39c-0.98-3.6-1.42-7.15-1.32-10.64 0.1-3.5 1.13-6.12 3.09-7.87 2.75-2.33 8.34-3.69 16.78-4.08s14.33-1.56 17.66-3.5c5.89-3.5 10.01-6.9 12.36-10.21 2.35-3.31 3.53-8.26 3.53-14.87 4.12 14.19 0.98 24.5-9.42 30.91-6.28 3.89-14.42 5.35-24.43 4.37-6.67-0.58-10.89 0.39-12.66 2.92-2.55 2.92-2.06 8.46 1.47 16.62 0.39 1.17 1.18 2.92 2.35 5.25 1.18 2.33 2.01 4.08 2.5 5.25 0.49 1.17 0.93 2.82 1.32 4.96s0.49 4.28 0.29 6.42c0 2.92-1.67 7.68-5 14.29-3.34 6.61-4.71 11.28-4.12 14 0.59 3.31 4.22 5.83 10.89 7.58 3.92 1.17 12.22 2.97 24.87 5.4 12.66 2.43 22.42 4.42 29.29 5.98 4.71 1.17 11.97 3.31 21.78 6.42s17.91 5.35 24.29 6.71c6.38 1.36 11.82 1.75 16.34 1.17 8.44-1.17 14.77-3.89 18.99-8.17 4.22-4.28 6.48-8.94 6.77-14 0.29-5.06-0.44-10.74-2.21-17.06-1.77-6.32-3.63-11.37-5.59-15.17-1.96-3.79-3.92-7.34-5.89-10.65-23.75-36.94-40.33-60.47-49.75-70.58-13.34-14.39-24.43-18.28-33.26-11.67-2.16 1.75-3.63 0.29-4.42-4.37-0.59-3.11-0.78-6.81-0.59-11.08 0.2-5.64 1.18-10.69 2.94-15.17 1.77-4.47 4.12-9.04 7.06-13.71 2.94-4.67 5.1-8.75 6.48-12.25 1.57-4.08 4.17-11.08 7.8-21s6.53-17.5 8.68-22.75c2.16-5.25 5.1-11.18 8.83-17.79 3.73-6.61 7.56-11.86 11.48-15.75 21.59-27.8 33.75-46.76 36.5-56.87-2.35-21.78-3.92-51.91-4.71-90.41-0.39-17.5 1.96-32.23 7.06-44.18 5.1-11.96 15.5-22.12 31.2-30.48 7.65-4.08 17.86-6.12 30.61-6.12 10.4-0.19 20.8 1.12 31.2 3.94 10.4 2.82 19.13 6.85 26.2 12.1 11.19 8.17 20.16 19.98 26.93 35.43 6.77 15.46 9.66 29.8 8.68 43.02-0.98 18.47 1.96 39.27 8.83 62.41 6.67 21.97 19.72 43.16 39.15 63.58 10.79 11.47 20.56 27.32 29.29 47.54s14.57 38.79 17.51 55.7c1.57 9.53 2.06 17.74 1.47 24.64-0.59 6.9-1.77 12.3-3.53 16.19-1.77 3.89-3.73 6.03-5.89 6.42-1.96 0.39-4.27 2.24-6.92 5.54-2.65 3.31-5.3 6.76-7.95 10.35-2.65 3.6-6.62 6.85-11.92 9.77s-11.28 4.28-17.96 4.08c-3.53-0.19-6.62-0.68-9.27-1.46-2.65-0.78-4.86-2.09-6.62-3.94-1.77-1.85-3.09-3.35-3.97-4.52-0.88-1.17-2.01-3.16-3.39-5.98-1.37-2.82-2.26-4.71-2.65-5.69-4.32-7.19-8.34-10.11-12.07-8.75-3.73 1.36-6.48 6.12-8.24 14.29s-1.08 17.6 2.06 28.29c3.92 13.61 4.02 32.57 0.29 56.87-1.96 12.64-0.2 22.41 5.3 29.31 5.49 6.9 12.66 10.11 21.49 9.62s17.17-3.94 25.02-10.35c11.58-9.53 20.36-15.99 26.35-19.39 5.99-3.4 16.14-7.53 30.47-12.39 10.4-3.5 17.96-7.05 22.67-10.65 4.71-3.6 6.53-6.95 5.45-10.06-1.08-3.11-3.53-5.88-7.36-8.31-3.83-2.43-8.88-4.71-15.16-6.85-6.48-2.14-11.33-6.81-14.57-14s-4.71-14.24-4.42-21.14c0.29-6.9 1.82-11.52 4.56-13.85 0.2 6.03 0.98 11.52 2.35 16.48 1.37 4.96 2.8 8.9 4.27 11.81 1.47 2.92 3.48 5.69 6.03 8.31 2.55 2.62 4.61 4.47 6.18 5.54 1.57 1.07 3.68 2.33 6.33 3.79 2.71 1.44 4.33 2.36 4.92 2.75zM556.96 290.06c0-0.39-0.25-0.87-0.74-1.46-0.49-0.58-1.37-1.26-2.65-2.04-1.28-0.78-2.21-1.36-2.8-1.75-2.94-2.92-5.3-4.37-7.06-4.37-1.77 0.19-2.89 0.92-3.39 2.19-0.49 1.26-0.59 2.53-0.29 3.79 0.29 1.26 0.25 2.48-0.15 3.65-0.2 0.78-0.79 1.8-1.77 3.06s-1.57 2.14-1.77 2.62c-0.2 0.49 0.1 1.31 0.88 2.48 0.79 0.58 1.57 0.58 2.35 0 0.79-0.58 1.86-1.46 3.24-2.62 1.37-1.17 2.85-2.04 4.42-2.62 0.2-0.19 1.08-0.29 2.65-0.29s3.04-0.19 4.42-0.58c1.39-0.41 2.27-1.09 2.66-2.06z m-15.89 67.95c0-2.14-0.49-4.03-1.47-5.69-0.98-1.65-2.06-2.87-3.24-3.65-1.18-0.78-2.06-1.07-2.65-0.88-1.18 0-1.96 0.19-2.35 0.58-0.39 0.39-0.39 0.78 0 1.17 0.39 0.39 0.88 0.68 1.47 0.88 2.75 0.78 4.51 3.79 5.3 9.04 0 0.58 0.78 0.39 2.35-0.58 0.39-0.38 0.59-0.67 0.59-0.87z m52.39 62.12c-0.39-1.56-1.03-2.67-1.91-3.35-0.88-0.68-2.16-1.17-3.83-1.46-1.67-0.29-3.09-0.83-4.27-1.6-0.98-0.58-1.91-1.36-2.8-2.33-0.88-0.97-1.57-1.75-2.06-2.33-0.49-0.58-1.03-1.22-1.62-1.9-0.59-0.68-0.98-1.07-1.18-1.17-0.2-0.1-0.59 0.05-1.18 0.44-2.75 3.11-2.06 7.34 2.06 12.69s7.95 8.41 11.48 9.19c1.77 0.19 3.19-0.58 4.27-2.33 1.09-1.77 1.43-3.71 1.04-5.85z m-123.34-57.45c0.59-3.31 0.34-6.22-0.74-8.75-1.08-2.53-2.21-3.99-3.39-4.37-1.77-0.39-2.65 0.29-2.65 2.04 0.39 0.97 0.88 1.56 1.47 1.75 1.96 0 2.65 1.46 2.06 4.37-0.59 3.89 0.2 5.83 2.35 5.83 0.61 0 0.9-0.29 0.9-0.87z m184.86 241.19c0-3.5-5.4-7.58-16.19-12.25 0.79-2.92 1.52-5.59 2.21-8.02 0.69-2.43 1.18-4.96 1.47-7.58 0.29-2.62 0.59-4.71 0.88-6.27 0.29-1.56 0.34-3.74 0.15-6.56-0.2-2.82-0.29-4.71-0.29-5.69s-0.34-3.11-1.03-6.42-1.08-5.3-1.18-5.98c-0.1-0.68-0.59-3.11-1.47-7.29s-1.42-6.76-1.62-7.73c-1.96-9.33-6.57-19.35-13.84-30.04s-14.33-17.98-21.19-21.87c4.71 3.89 10.3 11.96 16.78 24.21 17.07 31.5 22.37 58.52 15.9 81.08-2.16 7.78-7.06 11.86-14.72 12.25-6.08 0.78-9.86-1.02-11.33-5.4-1.47-4.37-2.26-12.49-2.35-24.35-0.1-11.86-1.23-22.26-3.39-31.21-1.77-7.58-3.68-14.29-5.74-20.12-2.06-5.83-3.97-10.26-5.74-13.27s-3.29-5.4-4.56-7.15-2.55-3.21-3.83-4.37c-1.28-1.17-2.01-1.85-2.21-2.04-2.75-12.05-5.79-22.07-9.13-30.04-3.34-7.97-6.23-13.42-8.68-16.33a81.613 81.613 0 0 1-6.92-9.62c-2.16-3.5-3.63-7.39-4.42-11.67-0.79-4.08-0.2-9.28 1.77-15.6 1.96-6.32 2.4-11.13 1.32-14.44-1.08-3.31-5.45-5.74-13.1-7.29-2.94-0.58-7.31-2.33-13.1-5.25s-9.27-4.47-10.45-4.67c-1.57-0.19-2.65-2.72-3.24-7.58s0.2-9.82 2.35-14.87c2.16-5.06 5.69-7.68 10.6-7.87 7.26-0.58 12.27 2.33 15.01 8.75 2.75 6.42 3.14 12.05 1.18 16.92-2.16 3.69-2.35 6.27-0.59 7.73 1.77 1.46 4.71 1.51 8.83 0.15 2.55-0.78 3.83-4.28 3.83-10.5V354.8c-0.98-5.83-2.31-10.69-3.97-14.58-1.67-3.89-3.73-6.85-6.18-8.9-2.45-2.04-4.76-3.5-6.92-4.37-2.16-0.88-4.81-1.6-7.95-2.19-21 1.56-29.73 14.58-26.2 39.08 0 2.92-0.1 4.37-0.29 4.37-1.77-1.75-4.66-2.77-8.68-3.06-4.02-0.29-7.26-0.24-9.71 0.15-2.45 0.39-3.97-0.1-4.56-1.46 0.2-11.08-1.37-19.83-4.71-26.25-3.34-6.42-7.75-9.72-13.25-9.92-5.3-0.19-9.37 2.48-12.22 8.02-2.85 5.54-4.46 11.33-4.86 17.35-0.2 2.92 0.15 6.51 1.03 10.79 0.88 4.28 2.16 7.92 3.83 10.94 1.67 3.01 3.19 4.33 4.56 3.94 1.96-0.58 3.53-1.94 4.71-4.08 0.79-1.75 0.1-2.53-2.06-2.33-1.37 0-2.89-1.41-4.56-4.23-1.67-2.82-2.6-6.08-2.8-9.77-0.2-4.28 0.69-7.87 2.65-10.79 1.96-2.92 5.3-4.28 10.01-4.08 3.34 0 5.99 2.04 7.95 6.12s2.89 7.87 2.8 11.37c-0.1 3.5-0.25 5.64-0.44 6.42-4.32 2.92-7.36 5.74-9.12 8.46-1.57 2.33-4.27 4.62-8.1 6.85-3.83 2.24-5.84 3.45-6.03 3.65-2.55 2.72-4.07 5.35-4.56 7.87-0.49 2.53 0.25 4.28 2.21 5.25 2.75 1.56 5.2 3.45 7.36 5.69s3.73 4.08 4.71 5.54 2.8 2.72 5.45 3.79c2.65 1.07 6.13 1.7 10.45 1.9 9.22 0.39 19.23-1.07 30.02-4.37 0.39-0.19 2.65-0.87 6.77-2.04 4.12-1.17 7.51-2.19 10.16-3.06 2.65-0.87 5.54-2.14 8.68-3.79 3.14-1.65 5.2-3.35 6.18-5.1 1.77-2.72 3.73-3.5 5.89-2.33 0.98 0.58 1.62 1.41 1.91 2.48 0.29 1.07 0 2.24-0.88 3.5-0.88 1.26-2.5 2.19-4.86 2.77-3.92 1.17-9.47 3.26-16.63 6.27-7.16 3.01-11.63 4.91-13.39 5.69-8.63 3.69-15.5 5.93-20.61 6.71-4.91 0.97-12.66 0.78-23.25-0.58-1.96-0.39-2.85-0.19-2.65 0.58 0.2 0.78 1.86 2.62 5 5.54 4.91 4.47 11.48 6.61 19.72 6.42 3.34-0.19 6.87-0.87 10.6-2.04 3.73-1.17 7.26-2.53 10.6-4.08 3.34-1.56 6.62-3.26 9.86-5.1 3.24-1.85 6.18-3.5 8.83-4.96 2.65-1.46 5.05-2.62 7.21-3.5 2.16-0.88 3.88-1.12 5.15-0.73 1.28 0.39 2.11 1.46 2.5 3.21 0 0.39-0.1 0.83-0.29 1.31-0.2 0.49-0.59 0.97-1.18 1.46s-1.18 0.92-1.77 1.31c-0.59 0.39-1.42 0.87-2.5 1.46-1.08 0.58-1.96 1.02-2.65 1.31-0.69 0.29-1.67 0.78-2.94 1.46-1.28 0.68-2.21 1.12-2.8 1.31-5.49 2.72-12.12 7-19.87 12.83-7.75 5.83-14.28 10.01-19.58 12.54-5.3 2.53-10.11 2.62-14.42 0.29-4.12-2.14-10.3-9.24-18.54-21.29-4.32-6.03-6.77-8.17-7.36-6.42-0.2 0.58-0.29 1.56-0.29 2.92 0 4.86-1.47 10.35-4.42 16.48-2.94 6.12-5.84 11.52-8.68 16.19-2.85 4.67-4.91 10.31-6.18 16.92-1.28 6.61-0.15 12.74 3.39 18.37-4.51 1.17-10.65 9.92-18.4 26.25s-12.41 30.04-13.98 41.12c-0.39 3.5-0.54 10.21-0.44 20.12 0.1 9.92-0.44 15.65-1.62 17.21-1.57 4.67-4.42 4.96-8.54 0.87-6.28-6.03-9.81-15.17-10.6-27.41-0.39-5.44 0-10.89 1.18-16.33 0.78-3.69 0.69-5.44-0.29-5.25-0.39 0.19-0.79 0.68-1.18 1.46-7.06 12.64-6.08 28.78 2.94 48.41 0.98 2.33 3.43 5.06 7.36 8.17 3.92 3.11 6.28 5.06 7.06 5.83 3.92 4.47 14.13 13.27 30.61 26.39 16.48 13.12 25.61 20.56 27.38 22.31 3.14 2.92 4.86 6.61 5.15 11.08 0.29 4.47-1.08 8.65-4.12 12.54-3.04 3.89-7.51 6.12-13.39 6.71 1.57 2.92 4.42 7.24 8.54 12.98 4.12 5.74 6.87 10.99 8.24 15.75s2.06 11.62 2.06 20.56c9.03-4.67 9.71-13.61 2.06-26.83-0.79-1.56-1.82-3.11-3.09-4.67-1.28-1.56-2.21-2.72-2.8-3.5s-0.78-1.36-0.59-1.75c0.59-0.97 1.86-1.9 3.83-2.77 1.96-0.87 3.92-0.63 5.89 0.73 9.03 10.11 25.32 13.61 48.86 10.5 26.1-2.92 43.47-11.37 52.1-25.37 4.51-7.39 7.85-10.3 10.01-8.75 2.35 1.17 3.34 6.22 2.94 15.17-0.2 4.86-2.45 13.8-6.77 26.83-1.77 4.47-2.35 8.12-1.77 10.94s2.94 4.33 7.06 4.52c0.59-3.69 2.01-11.18 4.27-22.46 2.26-11.28 3.58-20.03 3.97-26.25 0.39-4.08-0.25-11.23-1.91-21.44-1.67-10.21-2.4-19.64-2.21-28.29 0.2-8.65 2.45-15.51 6.77-20.56 2.94-3.5 7.95-5.25 15.01-5.25 0.2-7.19 3.58-12.35 10.16-15.46 6.57-3.11 13.69-4.13 21.34-3.06 7.66 1.04 13.54 3.23 17.66 6.54zM403.3 499.17c-0.78-0.19-1.37 0.1-1.77 0.87-0.39 0.78-0.83 1.99-1.32 3.65-0.49 1.65-1.03 2.97-1.62 3.94-0.59 0.97-1.57 2.24-2.94 3.79-1.96 2.14-2.06 3.31-0.29 3.5 0.78 0.19 2.01-0.49 3.68-2.04 1.67-1.56 2.89-3.31 3.68-5.25 0.2-0.58 0.39-1.26 0.59-2.04 0.2-0.78 0.39-1.36 0.59-1.75 0.2-0.39 0.34-0.83 0.44-1.31 0.1-0.49 0.15-0.87 0.15-1.17v-0.87l-0.29-0.73-0.9-0.59z m103.33-124.54c-0.79 0.19-1.91-0.44-3.39-1.9-1.47-1.46-3.19-1.9-5.15-1.31 4.71-2.14 7.85-1.94 9.42 0.58 0.59 1.18 0.29 2.05-0.88 2.63z m-25.61-4.08c-2.16 0.19-3.68 1.22-4.56 3.06-0.88 1.85-1.72 2.77-2.5 2.77-0.98 0.19-1.47-0.29-1.47-1.46 0-2.33 1.86-3.79 5.59-4.37h2.94z" fill="#222222" p-id="18725"></path></svg>