<?xml version="1.0" standalone="no"?><!DOCTYPE svg PUBLIC "-//W3C//DTD SVG 1.1//EN" "http://www.w3.org/Graphics/SVG/1.1/DTD/svg11.dtd"><svg t="1731924030388" class="icon" viewBox="0 0 1024 1024" version="1.1" xmlns="http://www.w3.org/2000/svg" p-id="16639" xmlns:xlink="http://www.w3.org/1999/xlink" width="200" height="200"><path d="M200.5 265.1c6.4 226.5 74.1 377.1 131.3 464.7 40.9 62.7 80.7 99.8 106.8 119.9 33.9 26 60.1 35.3 73.4 35.3 13.3 0 39.6-9.2 73.5-35.1 26.2-20 65.9-56.9 106.8-119.4 57.2-87.5 124.9-238 131.3-465.5-158.8-8-267-66.1-311.5-95.1-44.7 29.1-152.8 87.2-311.6 95.2zM548 332v124h80c19.9 0 36 16.1 36 36s-16.1 36-36 36h-80v164c0 19.9-16.1 36-36 36s-36-16.1-36-36V528h-80c-19.9 0-36-16.1-36-36s16.1-36 36-36h80V332c0-19.9 16.1-36 36-36s36 16.1 36 36z" fill="#FFEB3B" p-id="16640"></path><path d="M860 194c-106.1 0-188.8-26-239.4-47.8-54.2-23.3-84.5-47-85.9-48.1-13.3-10.9-32-10.9-45.3 0-1.4 1.1-31.7 24.8-85.9 48.1C352.8 168 270.1 194 164 194c-19.9 0-36 16.1-36 36 0 111.5 14.2 217.1 42.2 313.7 24.2 83.7 58.3 159.5 101.3 225.4 36.8 56.4 79.4 104 123.3 137.7C437.5 939.7 478.1 957 512 957c33.9 0 74.4-17.2 117.1-49.8 43.9-33.5 86.6-81 123.4-137.2 43-65.8 77.1-141.6 101.3-225.4C881.8 447.8 896 342 896 230c0-19.9-16.1-36-36-36zM692.2 730.5c-40.9 62.5-80.6 99.4-106.8 119.4-33.8 25.9-60.1 35.1-73.4 35.1-13.3 0-39.5-9.3-73.4-35.3-26.2-20.1-65.9-57.2-106.8-119.9-57.2-87.7-124.9-238.2-131.3-464.7 158.8-8 267-66.1 311.5-95.1 44.6 28.9 152.7 87.1 311.5 95.1-6.4 227.5-74 378-131.3 465.4z" fill="#FF9800" p-id="16641"></path><path d="M396 456c-19.9 0-36 16.1-36 36s16.1 36 36 36h80v-72h-80zM628 528c19.9 0 36-16.1 36-36s-16.1-36-36-36h-80v72h80z" fill="#FF9800" p-id="16642"></path><path d="M512 296c-19.9 0-36 16.1-36 36v360c0 19.9 16.1 36 36 36s36-16.1 36-36V332c0-19.9-16.1-36-36-36z" fill="#FF5722" p-id="16643"></path></svg>